<svg width="386" height="136" viewBox="0 0 386 136" fill="none" xmlns="http://www.w3.org/2000/svg">
<path fill-rule="evenodd" clip-rule="evenodd" d="M68.1088 9.95706e-07C67.2598 7.10897 60.572 11.0337 56.9338 11.8417C64.2271 12.9605 67.6729 19.8176 68.4842 23.1063C69.6291 15.557 76.2758 12.2089 79.456 11.4786C70.0752 8.74305 68.5818 2.01385 68.2164 0.36779L68.2164 0.367672C68.1639 0.131123 68.1347 -0.000417538 68.1088 9.95706e-07ZM81.8488 21.6307L77.5927 19.8434L91.9962 3.85278L97.1145 6.00206L95.6718 27.4353L91.4157 25.6481L91.8306 20.7967L85.0479 17.9486L81.8488 21.6307ZM92.8193 9.23464L92.1308 17.2855L87.3634 15.2836L92.6725 9.17301L92.8193 9.23464ZM114.485 83.0519L116.279 78.812L132.331 93.1607L130.173 98.2595L108.658 96.8223L110.452 92.5824L115.322 92.9957L118.181 86.2389L114.485 83.0519ZM126.928 93.9806L118.847 93.2948L120.856 88.5455L126.99 93.8344L126.928 93.9806ZM110.781 39.5448C112.491 39.0804 114.15 38.084 115.759 36.5558C117.368 35.0275 118.446 33.4236 118.993 31.7439C119.545 30.069 119.617 28.4294 119.21 26.8253C118.811 25.2214 117.992 23.7711 116.751 22.4745C115.501 21.1683 114.081 20.2789 112.492 19.8063C110.907 19.3292 109.262 19.3252 107.557 19.7944C105.851 20.2636 104.194 21.2623 102.585 22.7906C100.98 24.3142 99.9026 25.9135 99.3509 27.5885C98.7992 29.2634 98.7225 30.9028 99.1206 32.5067C99.5188 34.1106 100.343 35.5657 101.593 36.8719C102.834 38.1685 104.247 39.0554 105.831 39.5325C107.425 40.0099 109.075 40.014 110.781 39.5448ZM114.934 30.4342C114.516 31.4249 113.786 32.4152 112.744 33.4051C111.702 34.3951 110.674 35.0744 109.661 35.4431C108.652 35.8167 107.695 35.8991 106.789 35.6906C105.884 35.4821 105.071 35.0022 104.352 34.2511C103.633 33.4999 103.191 32.6688 103.025 31.7577C102.859 30.8466 102.985 29.8957 103.403 28.905C103.826 27.9191 104.558 26.9311 105.6 25.9412C106.642 24.9513 107.668 24.2695 108.676 23.896C109.69 23.5273 110.649 23.4472 111.555 23.6557C112.46 23.8643 113.273 24.3441 113.992 25.0953C114.711 25.8465 115.153 26.6776 115.319 27.5887C115.485 28.4997 115.357 29.4482 114.934 30.4342ZM99.5027 116.832C97.9686 115.229 96.9685 113.576 96.5023 111.872C96.0313 110.173 96.0354 108.529 96.5146 106.941C96.9936 105.363 97.8838 103.956 99.1854 102.719C100.497 101.474 101.957 100.653 103.567 100.256C105.177 99.8596 106.823 99.936 108.504 100.486C110.186 101.035 111.791 102.109 113.32 103.707C114.855 105.31 115.857 106.961 116.328 108.66C116.799 110.359 116.795 111.998 116.316 113.576C115.842 115.16 114.949 116.574 113.638 117.819C112.336 119.056 110.88 119.872 109.27 120.269C107.66 120.675 106.014 120.603 104.333 120.053C102.647 119.508 101.037 118.435 99.5027 116.832ZM102.665 113.828C103.659 114.866 104.653 115.593 105.648 116.01C106.637 116.431 107.59 116.558 108.504 116.393C109.419 116.228 110.253 115.787 111.007 115.071C111.761 114.354 112.243 113.545 112.452 112.643C112.661 111.741 112.581 110.785 112.211 109.776C111.836 108.771 111.152 107.749 110.158 106.711C109.164 105.673 108.172 104.943 107.183 104.522C106.188 104.106 105.234 103.98 104.319 104.146C103.405 104.311 102.57 104.752 101.816 105.468C101.062 106.184 100.58 106.993 100.371 107.896C100.162 108.798 100.245 109.751 100.62 110.756C100.99 111.766 101.672 112.789 102.665 113.828ZM128.974 38.0581L109.983 45.4396L114.726 57.5507L118.036 56.2639L114.86 48.1529L130.541 42.0581L128.974 38.0581ZM90.585 111.077L97.9947 129.996L93.9793 131.557L87.8613 115.936L79.7193 119.1L78.4276 115.802L90.585 111.077ZM58.8699 115.642L54.6138 113.855L51.4147 117.537L44.632 114.689L45.0469 109.838L40.7908 108.051L39.3481 129.484L44.4664 131.633L58.8699 115.642ZM44.3318 118.2L43.6434 126.251L43.7901 126.313L49.0992 120.202L44.3318 118.2ZM21.9814 52.4349L20.1873 56.6748L4.1356 42.3261L6.2931 37.2273L27.8082 38.6645L26.0141 42.9044L21.1443 42.4911L18.2852 49.2479L21.9814 52.4349ZM9.53802 41.5062L17.6196 42.192L15.61 46.9413L9.47616 41.6524L9.53802 41.5062ZM25.6838 95.9411C23.9736 96.4055 22.314 97.4019 20.705 98.9301C19.0961 100.458 18.018 102.062 17.471 103.742C16.9193 105.417 16.8472 107.056 17.2548 108.661C17.6529 110.265 18.4725 111.715 19.7135 113.011C20.9637 114.318 22.3834 115.207 23.9727 115.68C25.5571 116.157 27.2022 116.161 28.9079 115.691C30.6135 115.222 32.2708 114.224 33.8798 112.695C35.4839 111.172 36.5618 109.572 37.1135 107.897C37.6652 106.223 37.7419 104.583 37.3438 102.979C36.9456 101.375 36.1214 99.9202 34.8713 98.614C33.6303 97.3174 32.2176 96.4305 30.6331 95.9534C29.0392 95.476 27.3895 95.4719 25.6838 95.9411ZM21.5302 105.052C21.9482 104.061 22.6783 103.071 23.7205 102.081C24.7627 101.091 25.7905 100.411 26.8038 100.043C27.8125 99.6692 28.7696 99.5867 29.6752 99.7953C30.5808 100.004 31.3931 100.484 32.1121 101.235C32.831 101.986 33.2735 102.817 33.4394 103.728C33.6054 104.639 33.4794 105.59 33.0614 106.581C32.6389 107.567 31.9065 108.555 30.8643 109.545C29.8221 110.535 28.7966 111.216 27.7879 111.59C26.7746 111.959 25.8152 112.039 24.9096 111.83C24.004 111.622 23.1917 111.142 22.4728 110.391C21.7538 109.639 21.3113 108.808 21.1454 107.897C20.9794 106.986 21.1077 106.038 21.5302 105.052ZM36.9617 18.6542C38.4958 20.2571 39.4959 21.9103 39.9621 23.6141C40.4331 25.3133 40.429 26.9567 39.9498 28.5445C39.4708 30.123 38.5806 31.5303 37.279 32.7666C35.9678 34.012 34.5072 34.833 32.8972 35.2297C31.2871 35.6263 29.6414 35.5499 27.9601 35.0003C26.2788 34.4507 24.6734 33.3769 23.1439 31.7789C21.6098 30.176 20.6073 28.525 20.1363 26.8258C19.6653 25.1267 19.6693 23.4879 20.1483 21.9094C20.6227 20.3262 21.5154 18.9119 22.8266 17.6665C24.1282 16.4302 25.584 15.6137 27.1941 15.2171C28.8043 14.8111 30.4501 14.8829 32.1314 15.4325C33.8175 15.9775 35.4276 17.0514 36.9617 18.6542ZM33.799 21.6582C32.8053 20.62 31.8112 19.8927 30.8167 19.4763C29.827 19.0554 28.8749 18.9276 27.9603 19.0929C27.0458 19.2582 26.2115 19.699 25.4574 20.4152C24.7034 21.1314 24.2217 21.9406 24.0124 22.8428C23.8031 23.7449 23.8835 24.7007 24.2536 25.7102C24.6285 26.715 25.3129 27.7366 26.3066 28.7748C27.3003 29.8131 28.292 30.5427 29.2817 30.9636C30.2762 31.38 31.2308 31.5055 32.1453 31.3402C33.0598 31.1749 33.8941 30.7341 34.6482 30.0179C35.4022 29.3016 35.8839 28.4924 36.0932 27.5903C36.3026 26.6881 36.2197 25.7346 35.8448 24.7298C35.4747 23.7203 34.7927 22.6965 33.799 21.6582ZM7.48999 97.4287L26.4818 90.0472L21.7386 77.9361L18.428 79.2228L21.6046 87.3338L5.92339 93.4286L7.48999 97.4287ZM45.8794 24.4099L38.4697 5.49034L42.4851 3.9297L48.6031 19.5513L56.7451 16.3867L58.0367 19.6847L45.8794 24.4099ZM123.692 78.6361C122.881 75.0117 118.942 68.3493 111.805 67.5036C111.805 67.4777 111.937 67.4486 112.175 67.3963C113.827 67.0324 120.582 65.5446 123.328 56.1995C124.061 59.3676 127.422 65.989 135 67.1296C131.699 67.9377 124.816 71.3705 123.692 78.6361ZM9.99689e-07 67.0718C7.13611 67.9175 11.0759 74.5799 11.8869 78.2042C13.01 70.9387 19.8933 67.5059 23.1945 66.6978C15.6164 65.5572 12.2556 58.9358 11.5224 55.7677C8.77644 65.1128 2.02155 66.6006 0.369194 66.9645C0.131667 67.0168 -0.00041924 67.0459 9.99689e-07 67.0718ZM57.2609 124.735C60.8991 123.927 67.5869 120.003 68.4359 112.894C68.4618 112.893 68.491 113.025 68.5435 113.261L68.5435 113.262C68.9089 114.908 70.4023 121.637 79.7831 124.372C76.6029 125.103 69.9563 128.451 68.8113 136C68 132.711 64.5542 125.854 57.2609 124.735ZM59.0843 61.1773C60.8759 56.7882 63.8021 52.345 68.3865 49.2238C72.5198 52.197 75.5352 56.6119 77.4792 61.0009C78.6505 63.6452 79.39 66.18 79.7672 68.2765C79.2779 67.3936 78.6673 66.4786 77.9052 65.6162C75.8273 63.265 72.6663 61.3619 68.0269 61.4601C61.9057 61.5896 58.81 65.0898 57.0978 68.0305C57.4688 65.9625 58.098 63.5936 59.0843 61.1773ZM54.8501 72.2803C54.8502 72.28 54.8546 72.2759 54.8634 72.2692C54.8545 72.2773 54.8501 72.2806 54.8501 72.2803ZM87.9213 49.4555C85.7579 47.1785 79.6398 43.7076 71.6884 47.3487C75.8128 50.7245 78.7617 55.254 80.6794 59.5835C82.8913 64.5772 83.8658 69.6176 83.4944 72.6645C83.4746 73.249 83.3186 73.825 83.0237 74.3214C82.7169 74.8376 82.1767 75.3899 81.3735 75.5816C80.4931 75.7917 79.6739 75.48 79.0949 74.9427C78.5614 74.4476 78.2216 73.7699 77.9987 73.0609C77.5875 71.7525 76.8105 69.6628 75.2826 67.934C73.81 66.2677 71.6018 64.8852 68.1009 64.9593C62.3684 65.0806 60.5788 68.8078 59.1644 71.7538C58.8785 72.3493 58.6079 72.9128 58.3232 73.4082C57.9998 73.971 57.6358 74.4794 57.2171 74.8596C56.8418 75.2004 56.1227 75.7031 55.1777 75.5611C54.1455 75.4061 53.6328 74.6192 53.4259 74.1198C53.2122 73.6042 53.1508 73.0387 53.1508 72.5362C53.1508 69.5608 53.8332 64.7807 55.8439 59.8546C57.6494 55.4314 60.5623 50.8046 65.1032 47.2854C63.3148 46.4575 61.076 45.7411 58.7087 45.5497C55.2016 45.2663 51.4821 46.129 48.3866 49.4481C44.5243 53.5896 43.845 59.6175 45.0204 66.3588C46.1895 73.0634 49.1328 80.0747 51.9611 85.699C53.0591 87.8826 54.0201 89.2299 54.8089 90.0256C55.5923 90.8159 56.111 90.9706 56.3565 90.9952C56.5854 91.0181 56.8376 90.9546 57.1615 90.7154C57.4886 90.4737 57.8041 90.1102 58.0836 89.7026L62.8696 81.035C63.6589 79.3932 65.1725 77.459 67.3468 76.9646C69.8763 76.3895 72.1568 77.9299 73.9087 80.9594C76.9899 86.2874 78.4931 88.9473 78.9118 89.7057C79.3878 90.3962 80.0165 90.7257 80.579 90.6288C81.25 90.5131 82.7846 89.6824 84.6704 85.7314C87.0891 80.6638 90.1176 73.8228 91.3929 67.0464C92.673 60.2448 92.1143 53.9315 87.9213 49.4555ZM58.9907 42.0611C62.7207 42.3626 66.1194 43.7259 68.4369 45.0793C78.7878 39.274 87.2866 43.7015 90.4637 47.05L90.4708 47.0576C95.8003 52.7423 96.1935 60.4623 94.8325 67.6937C93.4665 74.9522 90.2599 82.1461 87.829 87.239C85.8352 91.4164 83.6171 93.6568 81.1734 94.0779C78.6352 94.5153 76.8046 92.8662 75.9566 91.5832L75.9169 91.5231L75.8823 91.46C75.5466 90.8481 74.0664 88.2236 70.8789 82.7116C69.444 80.2303 68.4336 80.3068 68.1227 80.3775C67.4795 80.5238 66.6119 81.3091 66.0084 82.5841L65.985 82.6335L61.0726 91.5302L61.0306 91.5929C60.627 92.1948 60.0348 92.9443 59.241 93.5306C58.4283 94.1309 57.3295 94.6099 56.0083 94.4778C54.7037 94.3474 53.4732 93.6497 52.3232 92.4896C51.1787 91.3351 50.0223 89.6342 48.8341 87.2714C45.9468 81.5297 42.8282 74.1614 41.5725 66.96C40.3231 59.7953 40.8562 52.3909 45.827 47.061C49.7981 42.8029 54.6519 41.7104 58.9907 42.0611Z" fill="#6855F7"/>
<path d="M368.577 59.4088C366.671 59.4088 364.945 58.9188 363.399 57.9387C361.863 56.9476 360.644 55.4938 359.74 53.5772C358.847 51.6496 358.4 49.2864 358.4 46.4877C358.4 43.6127 358.863 41.2223 359.789 39.3165C360.715 37.3998 361.945 35.9678 363.481 35.0203C365.027 34.062 366.72 33.5828 368.561 33.5828C369.966 33.5828 371.136 33.8224 372.073 34.3016C373.02 34.7699 373.783 35.3579 374.36 36.0658C374.948 36.7628 375.394 37.4488 375.699 38.124H375.912V25.5459H382.854V59.0004H375.993V54.982H375.699C375.373 55.6789 374.91 56.3705 374.311 57.0566C373.723 57.7317 372.955 58.2926 372.008 58.7391C371.071 59.1856 369.928 59.4088 368.577 59.4088ZM370.782 53.8712C371.904 53.8712 372.852 53.5663 373.625 52.9564C374.409 52.3357 375.008 51.4699 375.422 50.3591C375.846 49.2483 376.059 47.9469 376.059 46.455C376.059 44.963 375.852 43.6671 375.438 42.5672C375.024 41.4673 374.425 40.6179 373.641 40.0189C372.857 39.42 371.904 39.1205 370.782 39.1205C369.639 39.1205 368.675 39.4308 367.891 40.0516C367.107 40.6723 366.514 41.5326 366.111 42.6325C365.708 43.7325 365.506 45.0066 365.506 46.455C365.506 47.9143 365.708 49.2048 366.111 50.3264C366.524 51.4372 367.118 52.3084 367.891 52.9401C368.675 53.5608 369.639 53.8712 370.782 53.8712Z" fill="black"/>
<path d="M343.275 59.4897C340.694 59.4897 338.472 58.967 336.61 57.9215C334.758 56.8652 333.332 55.3732 332.33 53.4457C331.328 51.5072 330.827 49.2148 330.827 46.5685C330.827 43.9876 331.328 41.7224 332.33 39.7731C333.332 37.8237 334.742 36.3046 336.561 35.2156C338.39 34.1265 340.536 33.582 342.997 33.582C344.652 33.582 346.193 33.8488 347.62 34.3825C349.057 34.9052 350.31 35.6947 351.377 36.7511C352.455 37.8074 353.294 39.136 353.892 40.7369C354.491 42.3268 354.791 44.189 354.791 46.3235V48.2347H333.604V43.9222H348.24C348.24 42.9203 348.023 42.0328 347.587 41.2596C347.151 40.4864 346.547 39.882 345.774 39.4464C345.012 38.9999 344.124 38.7766 343.111 38.7766C342.055 38.7766 341.118 39.0217 340.302 39.5117C339.496 39.9909 338.864 40.6388 338.407 41.4556C337.949 42.2615 337.715 43.1599 337.704 44.1509V48.2511C337.704 49.4925 337.933 50.5652 338.39 51.4691C338.859 52.373 339.517 53.07 340.367 53.56C341.216 54.0501 342.224 54.2951 343.389 54.2951C344.162 54.2951 344.87 54.1862 345.513 53.9684C346.155 53.7506 346.705 53.4239 347.162 52.9883C347.62 52.5527 347.968 52.0191 348.208 51.3874L354.644 51.8121C354.317 53.3585 353.647 54.7089 352.635 55.8633C351.633 57.0067 350.337 57.8997 348.747 58.5423C347.168 59.1739 345.344 59.4897 343.275 59.4897Z" fill="black"/>
<path d="M316.179 59.4897C313.608 59.4897 311.398 58.9452 309.546 57.8562C307.706 56.7563 306.29 55.2317 305.299 53.2823C304.319 51.333 303.829 49.0896 303.829 46.5522C303.829 43.9821 304.325 41.7279 305.316 39.7894C306.318 37.8401 307.739 36.3209 309.579 35.2319C311.42 34.132 313.608 33.582 316.146 33.582C318.335 33.582 320.251 33.9795 321.896 34.7745C323.54 35.5695 324.842 36.6857 325.8 38.1232C326.758 39.5607 327.286 41.2487 327.384 43.1871H320.818C320.633 41.9348 320.143 40.9274 319.348 40.1651C318.563 39.3919 317.534 39.0053 316.26 39.0053C315.182 39.0053 314.24 39.2994 313.434 39.8874C312.639 40.4646 312.018 41.3086 311.572 42.4194C311.125 43.5302 310.902 44.8751 310.902 46.4542C310.902 48.055 311.12 49.4163 311.556 50.538C312.002 51.6597 312.628 52.5146 313.434 53.1026C314.24 53.6907 315.182 53.9847 316.26 53.9847C317.055 53.9847 317.769 53.8214 318.4 53.4947C319.043 53.168 319.571 52.6942 319.985 52.0735C320.409 51.4419 320.687 50.685 320.818 49.8029H327.384C327.276 51.7196 326.753 53.4076 325.816 54.8668C324.891 56.3152 323.611 57.4478 321.978 58.2646C320.344 59.0813 318.411 59.4897 316.179 59.4897Z" fill="black"/>
<path d="M283.185 44.494V58.9996H276.227V33.9087H282.859V38.3356H283.153C283.708 36.8763 284.639 35.7219 285.946 34.8725C287.253 34.0122 288.837 33.582 290.7 33.582C292.442 33.582 293.961 33.9632 295.257 34.7255C296.553 35.4878 297.56 36.5768 298.279 37.9925C298.998 39.3974 299.357 41.0745 299.357 43.0238V58.9996H292.398V44.2653C292.409 42.7298 292.017 41.5318 291.222 40.6715C290.427 39.8003 289.333 39.3647 287.939 39.3647C287.002 39.3647 286.175 39.5662 285.456 39.9691C284.748 40.372 284.193 40.9601 283.79 41.7333C283.398 42.4956 283.196 43.4158 283.185 44.494Z" fill="black"/>
<path d="M256.697 59.4734C255.096 59.4734 253.67 59.1957 252.417 58.6403C251.165 58.074 250.174 57.2409 249.444 56.141C248.726 55.0302 248.366 53.6471 248.366 51.9918C248.366 50.5979 248.622 49.4272 249.134 48.4798C249.646 47.5323 250.343 46.77 251.225 46.1928C252.107 45.6156 253.109 45.18 254.231 44.886C255.363 44.592 256.55 44.3851 257.792 44.2653C259.251 44.1128 260.427 43.9712 261.32 43.8406C262.213 43.699 262.861 43.4921 263.264 43.2198C263.667 42.9476 263.868 42.5446 263.868 42.011V41.913C263.868 40.8784 263.542 40.078 262.888 39.5117C262.246 38.9454 261.331 38.6623 260.144 38.6623C258.892 38.6623 257.895 38.94 257.155 39.4954C256.414 40.0399 255.924 40.726 255.684 41.5536L249.248 41.0309C249.575 39.5063 250.218 38.1886 251.176 37.0778C252.134 35.9561 253.37 35.0958 254.884 34.4968C256.409 33.887 258.173 33.582 260.177 33.582C261.571 33.582 262.905 33.7454 264.179 34.0721C265.464 34.3988 266.602 34.9052 267.593 35.5913C268.595 36.2773 269.384 37.1594 269.961 38.2376C270.539 39.3048 270.827 40.5844 270.827 42.0763V58.9996H264.228V55.5202H264.032C263.629 56.3043 263.09 56.9959 262.415 57.5948C261.739 58.1829 260.928 58.6457 259.981 58.9833C259.033 59.31 257.939 59.4734 256.697 59.4734ZM258.69 54.6708C259.714 54.6708 260.618 54.4693 261.402 54.0664C262.186 53.6526 262.801 53.0972 263.248 52.4002C263.694 51.7032 263.917 50.9137 263.917 50.0316V47.369C263.7 47.5105 263.4 47.6412 263.019 47.761C262.649 47.8699 262.229 47.9734 261.761 48.0714C261.293 48.1585 260.825 48.2402 260.356 48.3164C259.888 48.3817 259.463 48.4416 259.082 48.4961C258.265 48.6159 257.552 48.8065 256.942 49.0678C256.332 49.3292 255.859 49.6831 255.521 50.1296C255.183 50.5652 255.015 51.1097 255.015 51.7631C255.015 52.7106 255.358 53.4348 256.044 53.9357C256.741 54.4258 257.623 54.6708 258.69 54.6708Z" fill="black"/>
<path d="M246.655 33.9092L237.883 59.0001H230.043L221.271 33.9092H228.621L233.832 51.8616H234.094L239.288 33.9092H246.655Z" fill="black"/>
<path d="M203.265 59.4088C201.359 59.4088 199.633 58.9188 198.086 57.9387C196.551 56.9476 195.331 55.4938 194.427 53.5772C193.534 51.6496 193.088 49.2864 193.088 46.4877C193.088 43.6127 193.551 41.2223 194.476 39.3165C195.402 37.3998 196.633 35.9678 198.168 35.0203C199.715 34.062 201.408 33.5828 203.248 33.5828C204.653 33.5828 205.824 33.8224 206.76 34.3016C207.708 34.7699 208.47 35.3579 209.047 36.0658C209.635 36.7628 210.082 37.4488 210.387 38.124H210.599V25.5459H217.542V59.0004H210.681V54.982H210.387C210.06 55.6789 209.597 56.3705 208.998 57.0566C208.41 57.7317 207.643 58.2926 206.695 58.7391C205.759 59.1856 204.615 59.4088 203.265 59.4088ZM205.47 53.8712C206.592 53.8712 207.539 53.5663 208.312 52.9564C209.096 52.3357 209.695 51.4699 210.109 50.3591C210.534 49.2483 210.746 47.9469 210.746 46.455C210.746 44.963 210.539 43.6671 210.126 42.5672C209.712 41.4673 209.113 40.6179 208.329 40.0189C207.545 39.42 206.592 39.1205 205.47 39.1205C204.327 39.1205 203.363 39.4308 202.579 40.0516C201.795 40.6723 201.201 41.5326 200.798 42.6325C200.395 43.7325 200.194 45.0066 200.194 46.455C200.194 47.9143 200.395 49.2048 200.798 50.3264C201.212 51.4372 201.805 52.3084 202.579 52.9401C203.363 53.5608 204.327 53.8712 205.47 53.8712Z" fill="black"/>
<path d="M166.674 59.0004H159.095L170.644 25.5459H179.759L191.291 59.0004H183.712L175.332 33.1908H175.071L166.674 59.0004ZM166.201 45.8506H184.104V51.3719H166.201V45.8506Z" fill="black"/>
<path d="M360.032 114V79.8184H367.142V92.6699H367.359C367.671 91.9801 368.121 91.2791 368.711 90.5669C369.312 89.8437 370.091 89.2428 371.048 88.7644C372.016 88.2748 373.218 88.03 374.653 88.03C376.522 88.03 378.247 88.5196 379.827 89.4988C381.407 90.4668 382.67 91.93 383.616 93.8883C384.561 95.8355 385.034 98.2779 385.034 101.215C385.034 104.075 384.573 106.49 383.649 108.459C382.737 110.417 381.49 111.903 379.91 112.915C378.342 113.917 376.583 114.417 374.636 114.417C373.257 114.417 372.083 114.189 371.115 113.733C370.158 113.277 369.373 112.704 368.761 112.014C368.149 111.313 367.682 110.606 367.359 109.894H367.042V114H360.032ZM366.992 101.182C366.992 102.706 367.204 104.036 367.626 105.171C368.049 106.306 368.661 107.191 369.462 107.825C370.263 108.448 371.237 108.759 372.383 108.759C373.54 108.759 374.519 108.442 375.321 107.808C376.122 107.163 376.728 106.273 377.14 105.138C377.563 103.992 377.774 102.673 377.774 101.182C377.774 99.7021 377.568 98.4003 377.157 97.2765C376.745 96.1526 376.138 95.2736 375.337 94.6394C374.536 94.0051 373.551 93.688 372.383 93.688C371.226 93.688 370.247 93.994 369.446 94.606C368.656 95.218 368.049 96.0859 367.626 97.2097C367.204 98.3335 366.992 99.6576 366.992 101.182Z" fill="black"/>
<path d="M339.946 114.484C338.31 114.484 336.852 114.201 335.573 113.633C334.293 113.055 333.281 112.203 332.535 111.08C331.801 109.945 331.434 108.532 331.434 106.84C331.434 105.416 331.695 104.22 332.218 103.252C332.741 102.284 333.453 101.505 334.354 100.915C335.256 100.325 336.279 99.8804 337.425 99.58C338.583 99.2796 339.795 99.0682 341.064 98.9458C342.555 98.79 343.757 98.6453 344.669 98.5118C345.581 98.3672 346.243 98.1557 346.655 97.8776C347.067 97.5994 347.273 97.1877 347.273 96.6425V96.5423C347.273 95.4853 346.939 94.6675 346.271 94.0889C345.615 93.5103 344.68 93.221 343.467 93.221C342.188 93.221 341.17 93.5047 340.413 94.0722C339.656 94.6285 339.156 95.3295 338.911 96.1752L332.335 95.6411C332.669 94.0833 333.325 92.7369 334.304 91.602C335.284 90.4559 336.546 89.5769 338.093 88.9649C339.651 88.3418 341.453 88.0303 343.501 88.0303C344.925 88.0303 346.288 88.1972 347.59 88.531C348.903 88.8648 350.066 89.3822 351.078 90.0832C352.102 90.7842 352.909 91.6855 353.498 92.787C354.088 93.8775 354.383 95.1849 354.383 96.7092V114H347.64V110.445H347.44C347.028 111.247 346.477 111.953 345.787 112.565C345.097 113.166 344.268 113.639 343.3 113.984C342.332 114.318 341.214 114.484 339.946 114.484ZM341.982 109.578C343.028 109.578 343.951 109.372 344.752 108.96C345.554 108.537 346.182 107.97 346.639 107.258C347.095 106.545 347.323 105.739 347.323 104.837V102.117C347.1 102.262 346.794 102.395 346.405 102.517C346.027 102.629 345.598 102.734 345.12 102.835C344.641 102.924 344.163 103.007 343.684 103.085C343.206 103.152 342.772 103.213 342.382 103.269C341.548 103.391 340.819 103.586 340.196 103.853C339.573 104.12 339.089 104.481 338.744 104.938C338.399 105.383 338.227 105.939 338.227 106.607C338.227 107.575 338.577 108.315 339.278 108.826C339.99 109.327 340.891 109.578 341.982 109.578Z" fill="black"/>
<path d="M306.102 114V79.8184H313.328V108.042H327.983V114H306.102Z" fill="black"/>
<path d="M277.849 114.501C275.257 114.501 273.015 113.95 271.123 112.849C269.243 111.736 267.791 110.189 266.767 108.209C265.743 106.217 265.231 103.908 265.231 101.282C265.231 98.6342 265.743 96.3198 266.767 94.3392C267.791 92.3475 269.243 90.8009 271.123 89.6993C273.015 88.5866 275.257 88.0303 277.849 88.0303C280.442 88.0303 282.678 88.5866 284.559 89.6993C286.45 90.8009 287.908 92.3475 288.932 94.3392C289.955 96.3198 290.467 98.6342 290.467 101.282C290.467 103.908 289.955 106.217 288.932 108.209C287.908 110.189 286.45 111.736 284.559 112.849C282.678 113.95 280.442 114.501 277.849 114.501ZM277.883 108.993C279.062 108.993 280.047 108.66 280.837 107.992C281.627 107.313 282.222 106.39 282.623 105.221C283.034 104.053 283.24 102.723 283.24 101.232C283.24 99.7413 283.034 98.4117 282.623 97.2433C282.222 96.075 281.627 95.1515 280.837 94.4727C280.047 93.794 279.062 93.4546 277.883 93.4546C276.692 93.4546 275.691 93.794 274.878 94.4727C274.077 95.1515 273.471 96.075 273.059 97.2433C272.659 98.4117 272.458 99.7413 272.458 101.232C272.458 102.723 272.659 104.053 273.059 105.221C273.471 106.39 274.077 107.313 274.878 107.992C275.691 108.66 276.692 108.993 277.883 108.993Z" fill="black"/>
<path d="M244.047 99.1792V114H236.937V79.8184H243.846V92.8869H244.147C244.725 91.3736 245.66 90.1886 246.951 89.3319C248.241 88.464 249.86 88.03 251.808 88.03C253.588 88.03 255.14 88.4194 256.464 89.1983C257.799 89.9661 258.834 91.0732 259.569 92.5197C260.314 93.9551 260.681 95.6742 260.67 97.677V114H253.56V98.9455C253.571 97.3655 253.171 96.1359 252.358 95.2569C251.557 94.3779 250.433 93.9384 248.987 93.9384C248.019 93.9384 247.162 94.1442 246.417 94.5559C245.682 94.9676 245.104 95.5685 244.681 96.3585C244.269 97.1374 244.058 98.0776 244.047 99.1792Z" fill="black"/>
<path d="M231.755 88.3637V93.7046H216.316V88.3637H231.755ZM219.821 82.2217H226.931V106.122C226.931 106.779 227.032 107.291 227.232 107.658C227.432 108.014 227.71 108.264 228.066 108.409C228.434 108.553 228.856 108.626 229.335 108.626C229.669 108.626 230.002 108.598 230.336 108.542C230.67 108.476 230.926 108.426 231.104 108.392L232.222 113.683C231.866 113.794 231.366 113.922 230.72 114.067C230.075 114.223 229.29 114.317 228.367 114.351C226.653 114.417 225.151 114.189 223.86 113.666C222.581 113.143 221.585 112.331 220.873 111.229C220.161 110.128 219.81 108.737 219.821 107.057V82.2217Z" fill="black"/>
<path d="M197.602 114V88.3633H204.495V92.8363H204.762C205.229 91.2451 206.013 90.0434 207.115 89.2312C208.217 88.4078 209.485 87.9961 210.92 87.9961C211.277 87.9961 211.66 88.0183 212.072 88.0629C212.484 88.1074 212.845 88.1686 213.157 88.2464V94.5554C212.823 94.4553 212.361 94.3662 211.772 94.2884C211.182 94.2105 210.642 94.1715 210.153 94.1715C209.107 94.1715 208.172 94.3996 207.349 94.8558C206.536 95.3009 205.891 95.924 205.413 96.7251C204.945 97.5263 204.712 98.4498 204.712 99.4957V114H197.602Z" fill="black"/>
<path d="M192.382 96.9088C192.382 100.636 191.676 103.807 190.263 106.422C188.861 109.037 186.947 111.034 184.521 112.414C182.107 113.783 179.392 114.467 176.376 114.467C173.339 114.467 170.612 113.777 168.198 112.397C165.783 111.018 163.875 109.02 162.473 106.406C161.071 103.791 160.37 100.625 160.37 96.9088C160.37 93.1813 161.071 90.0102 162.473 87.3953C163.875 84.7805 165.783 82.7888 168.198 81.4202C170.612 80.0405 173.339 79.3506 176.376 79.3506C179.392 79.3506 182.107 80.0405 184.521 81.4202C186.947 82.7888 188.861 84.7805 190.263 87.3953C191.676 90.0102 192.382 93.1813 192.382 96.9088ZM185.055 96.9088C185.055 94.4943 184.694 92.4581 183.97 90.8002C183.258 89.1423 182.251 87.8849 180.949 87.0281C179.647 86.1714 178.123 85.743 176.376 85.743C174.629 85.743 173.105 86.1714 171.803 87.0281C170.501 87.8849 169.489 89.1423 168.765 90.8002C168.053 92.4581 167.697 94.4943 167.697 96.9088C167.697 99.3234 168.053 101.36 168.765 103.017C169.489 104.675 170.501 105.933 171.803 106.79C173.105 107.646 174.629 108.075 176.376 108.075C178.123 108.075 179.647 107.646 180.949 106.79C182.251 105.933 183.258 104.675 183.97 103.017C184.694 101.36 185.055 99.3234 185.055 96.9088Z" fill="black"/>
</svg>
