<svg width="382" height="136" viewBox="0 0 382 136" fill="none" xmlns="http://www.w3.org/2000/svg">
<path d="M365.577 60.4079C363.671 60.4079 361.945 59.9178 360.399 58.9377C358.863 57.9467 357.644 56.4928 356.74 54.5762C355.847 52.6486 355.4 50.2855 355.4 47.4867C355.4 44.6117 355.863 42.2213 356.789 40.3155C357.715 38.3989 358.945 36.9668 360.481 36.0194C362.027 35.061 363.72 34.5819 365.561 34.5819C366.966 34.5819 368.136 34.8214 369.073 35.3006C370.02 35.7689 370.783 36.3569 371.36 37.0648C371.948 37.7618 372.394 38.4479 372.699 39.123H372.912V26.5449H379.854V59.9995H372.993V55.981H372.699C372.373 56.678 371.91 57.3695 371.311 58.0556C370.723 58.7308 369.955 59.2916 369.008 59.7381C368.071 60.1846 366.928 60.4079 365.577 60.4079ZM367.782 54.8702C368.904 54.8702 369.852 54.5653 370.625 53.9554C371.409 53.3347 372.008 52.4689 372.422 51.3581C372.846 50.2473 373.059 48.946 373.059 47.454C373.059 45.9621 372.852 44.6661 372.438 43.5662C372.024 42.4663 371.425 41.6169 370.641 41.0179C369.857 40.419 368.904 40.1195 367.782 40.1195C366.639 40.1195 365.675 40.4299 364.891 41.0506C364.107 41.6713 363.514 42.5317 363.111 43.6316C362.708 44.7315 362.506 46.0056 362.506 47.454C362.506 48.9133 362.708 50.2038 363.111 51.3255C363.524 52.4363 364.118 53.3075 364.891 53.9391C365.675 54.5598 366.639 54.8702 367.782 54.8702Z" fill="#0C072C"/>
<path d="M340.274 60.4897C337.693 60.4897 335.471 59.967 333.609 58.9215C331.758 57.8652 330.331 56.3732 329.329 54.4457C328.327 52.5072 327.826 50.2148 327.826 47.5685C327.826 44.9876 328.327 42.7224 329.329 40.7731C330.331 38.8237 331.741 37.3046 333.56 36.2156C335.389 35.1265 337.535 34.582 339.996 34.582C341.651 34.582 343.192 34.8488 344.619 35.3825C346.056 35.9052 347.309 36.6947 348.376 37.7511C349.454 38.8074 350.293 40.136 350.892 41.7369C351.49 43.3268 351.79 45.189 351.79 47.3235V49.2347H330.603V44.9222H345.24C345.24 43.9203 345.022 43.0328 344.586 42.2596C344.151 41.4864 343.546 40.882 342.773 40.4464C342.011 39.9999 341.123 39.7766 340.11 39.7766C339.054 39.7766 338.117 40.0217 337.301 40.5117C336.495 40.9909 335.863 41.6388 335.406 42.4556C334.948 43.2615 334.714 44.1599 334.703 45.1509V49.2511C334.703 50.4925 334.932 51.5652 335.389 52.4691C335.858 53.373 336.517 54.07 337.366 54.56C338.215 55.0501 339.223 55.2951 340.388 55.2951C341.161 55.2951 341.869 55.1862 342.512 54.9684C343.154 54.7506 343.704 54.4239 344.161 53.9883C344.619 53.5527 344.967 53.0191 345.207 52.3874L351.643 52.8121C351.316 54.3585 350.646 55.7089 349.634 56.8633C348.632 58.0067 347.336 58.8997 345.746 59.5423C344.167 60.1739 342.343 60.4897 340.274 60.4897Z" fill="#0C072C"/>
<path d="M313.178 60.4897C310.607 60.4897 308.397 59.9452 306.545 58.8562C304.705 57.7563 303.289 56.2317 302.298 54.2823C301.318 52.333 300.828 50.0896 300.828 47.5522C300.828 44.9821 301.324 42.7279 302.315 40.7894C303.317 38.8401 304.738 37.3209 306.578 36.2319C308.419 35.132 310.607 34.582 313.145 34.582C315.334 34.582 317.25 34.9795 318.895 35.7745C320.539 36.5695 321.841 37.6857 322.799 39.1232C323.757 40.5607 324.286 42.2487 324.384 44.1871H317.817C317.632 42.9348 317.142 41.9274 316.347 41.1651C315.562 40.3919 314.533 40.0053 313.259 40.0053C312.181 40.0053 311.239 40.2994 310.433 40.8874C309.638 41.4646 309.018 42.3086 308.571 43.4194C308.125 44.5302 307.901 45.8751 307.901 47.4542C307.901 49.055 308.119 50.4163 308.555 51.538C309.001 52.6597 309.627 53.5146 310.433 54.1026C311.239 54.6907 312.181 54.9847 313.259 54.9847C314.054 54.9847 314.768 54.8214 315.399 54.4947C316.042 54.168 316.57 53.6942 316.984 53.0735C317.408 52.4419 317.686 51.685 317.817 50.8029H324.384C324.275 52.7196 323.752 54.4076 322.815 55.8668C321.89 57.3152 320.61 58.4478 318.977 59.2646C317.343 60.0813 315.41 60.4897 313.178 60.4897Z" fill="#0C072C"/>
<path d="M280.183 45.494V59.9996H273.225V34.9087H279.857V39.3356H280.151C280.706 37.8763 281.637 36.7219 282.944 35.8725C284.251 35.0122 285.835 34.582 287.698 34.582C289.44 34.582 290.959 34.9632 292.255 35.7255C293.551 36.4878 294.558 37.5768 295.277 38.9925C295.996 40.3974 296.355 42.0745 296.355 44.0238V59.9996H289.396V45.2653C289.407 43.7298 289.015 42.5318 288.22 41.6715C287.425 40.8003 286.331 40.3647 284.937 40.3647C284 40.3647 283.173 40.5662 282.454 40.9691C281.746 41.372 281.191 41.9601 280.788 42.7333C280.396 43.4956 280.194 44.4158 280.183 45.494Z" fill="#0C072C"/>
<path d="M253.696 60.4734C252.095 60.4734 250.669 60.1957 249.416 59.6403C248.164 59.074 247.173 58.2409 246.443 57.141C245.725 56.0302 245.365 54.6471 245.365 52.9918C245.365 51.5979 245.621 50.4272 246.133 49.4798C246.645 48.5323 247.342 47.77 248.224 47.1928C249.106 46.6156 250.108 46.18 251.23 45.886C252.362 45.592 253.549 45.3851 254.791 45.2653C256.25 45.1128 257.426 44.9712 258.319 44.8406C259.212 44.699 259.86 44.4921 260.263 44.2198C260.666 43.9476 260.867 43.5446 260.867 43.011V42.913C260.867 41.8784 260.541 41.078 259.887 40.5117C259.245 39.9454 258.33 39.6623 257.143 39.6623C255.891 39.6623 254.894 39.94 254.154 40.4954C253.413 41.0399 252.923 41.726 252.683 42.5536L246.247 42.0309C246.574 40.5063 247.217 39.1886 248.175 38.0778C249.133 36.9561 250.369 36.0958 251.883 35.4968C253.408 34.887 255.172 34.582 257.176 34.582C258.57 34.582 259.904 34.7454 261.178 35.0721C262.463 35.3988 263.601 35.9052 264.592 36.5913C265.594 37.2773 266.383 38.1594 266.96 39.2376C267.538 40.3048 267.826 41.5844 267.826 43.0763V59.9996H261.227V56.5202H261.031C260.628 57.3043 260.089 57.9959 259.414 58.5948C258.738 59.1829 257.927 59.6457 256.98 59.9833C256.032 60.31 254.938 60.4734 253.696 60.4734ZM255.689 55.6708C256.713 55.6708 257.617 55.4693 258.401 55.0664C259.185 54.6526 259.8 54.0972 260.247 53.4002C260.693 52.7032 260.916 51.9137 260.916 51.0316V48.369C260.699 48.5105 260.399 48.6412 260.018 48.761C259.648 48.8699 259.228 48.9734 258.76 49.0714C258.292 49.1585 257.824 49.2402 257.355 49.3164C256.887 49.3817 256.462 49.4416 256.081 49.4961C255.264 49.6159 254.551 49.8065 253.941 50.0678C253.331 50.3292 252.858 50.6831 252.52 51.1296C252.182 51.5652 252.014 52.1097 252.014 52.7631C252.014 53.7106 252.357 54.4348 253.043 54.9357C253.74 55.4258 254.622 55.6708 255.689 55.6708Z" fill="#0C072C"/>
<path d="M243.654 34.9082L234.882 59.9991H227.042L218.27 34.9082H225.62L230.831 52.8606H231.093L236.287 34.9082H243.654Z" fill="#0C072C"/>
<path d="M200.265 60.4079C198.359 60.4079 196.633 59.9178 195.086 58.9377C193.551 57.9467 192.331 56.4928 191.427 54.5762C190.534 52.6486 190.088 50.2855 190.088 47.4867C190.088 44.6117 190.551 42.2213 191.476 40.3155C192.402 38.3989 193.633 36.9668 195.168 36.0194C196.715 35.061 198.408 34.5819 200.248 34.5819C201.653 34.5819 202.824 34.8214 203.76 35.3006C204.708 35.7689 205.47 36.3569 206.047 37.0648C206.635 37.7618 207.082 38.4479 207.387 39.123H207.599V26.5449H214.542V59.9995H207.681V55.981H207.387C207.06 56.678 206.597 57.3695 205.998 58.0556C205.41 58.7308 204.643 59.2916 203.695 59.7381C202.759 60.1846 201.615 60.4079 200.265 60.4079ZM202.47 54.8702C203.592 54.8702 204.539 54.5653 205.312 53.9554C206.096 53.3347 206.695 52.4689 207.109 51.3581C207.534 50.2473 207.746 48.946 207.746 47.454C207.746 45.9621 207.539 44.6661 207.126 43.5662C206.712 42.4663 206.113 41.6169 205.329 41.0179C204.545 40.419 203.592 40.1195 202.47 40.1195C201.327 40.1195 200.363 40.4299 199.579 41.0506C198.795 41.6713 198.201 42.5317 197.798 43.6316C197.395 44.7315 197.194 46.0056 197.194 47.454C197.194 48.9133 197.395 50.2038 197.798 51.3255C198.212 52.4363 198.805 53.3075 199.579 53.9391C200.363 54.5598 201.327 54.8702 202.47 54.8702Z" fill="#0C072C"/>
<path d="M163.673 59.9995H156.094L167.643 26.5449H176.758L188.29 59.9995H180.711L172.331 34.1898H172.07L163.673 59.9995ZM163.2 46.8496H181.103V52.3709H163.2V46.8496Z" fill="#0C072C"/>
<path d="M357.836 110.999V76.0898H361.859V88.9762H362.2C362.495 88.5217 362.904 87.9421 363.427 87.2376C363.961 86.5217 364.722 85.8853 365.711 85.3285C366.711 84.7603 368.063 84.4762 369.768 84.4762C371.972 84.4762 373.915 85.0273 375.597 86.1296C377.279 87.2319 378.592 88.7944 379.535 90.8171C380.478 92.8398 380.95 95.2262 380.95 97.9762C380.95 100.749 380.478 103.152 379.535 105.186C378.592 107.209 377.285 108.777 375.614 109.891C373.944 110.993 372.018 111.544 369.836 111.544C368.154 111.544 366.808 111.266 365.796 110.709C364.785 110.141 364.006 109.499 363.461 108.783C362.915 108.056 362.495 107.453 362.2 106.976H361.722V110.999H357.836ZM361.79 97.908C361.79 99.8853 362.08 101.63 362.66 103.141C363.239 104.641 364.086 105.817 365.2 106.669C366.313 107.51 367.677 107.931 369.29 107.931C370.972 107.931 372.376 107.488 373.501 106.601C374.637 105.703 375.489 104.499 376.058 102.988C376.637 101.465 376.927 99.7717 376.927 97.908C376.927 96.0671 376.643 94.408 376.075 92.9308C375.518 91.4421 374.671 90.266 373.535 89.4023C372.41 88.5273 370.995 88.0898 369.29 88.0898C367.654 88.0898 366.279 88.5046 365.165 89.3342C364.052 90.1523 363.211 91.3001 362.643 92.7773C362.075 94.2433 361.79 95.9535 361.79 97.908Z" fill="#0C072C"/>
<path d="M337.949 111.613C336.29 111.613 334.785 111.3 333.432 110.675C332.08 110.039 331.006 109.124 330.211 107.931C329.415 106.727 329.018 105.272 329.018 103.567C329.018 102.067 329.313 100.852 329.904 99.9197C330.495 98.9766 331.285 98.2379 332.273 97.7038C333.262 97.1697 334.353 96.772 335.546 96.5107C336.751 96.2379 337.961 96.022 339.177 95.8629C340.768 95.6584 342.057 95.505 343.046 95.4027C344.046 95.2891 344.773 95.1016 345.228 94.8402C345.694 94.5788 345.927 94.1243 345.927 93.4766V93.3402C345.927 91.6584 345.466 90.3516 344.546 89.4197C343.637 88.4879 342.256 88.022 340.404 88.022C338.483 88.022 336.978 88.4425 335.887 89.2834C334.796 90.1243 334.029 91.022 333.586 91.9766L329.768 90.6129C330.449 89.022 331.358 87.7834 332.495 86.897C333.643 85.9993 334.893 85.3743 336.245 85.022C337.608 84.6584 338.949 84.4766 340.268 84.4766C341.108 84.4766 342.074 84.5788 343.165 84.7834C344.268 84.9766 345.33 85.38 346.353 85.9936C347.387 86.6072 348.245 87.5334 348.927 88.772C349.608 90.0107 349.949 91.6697 349.949 93.7493V110.999H345.927V107.454H345.722C345.449 108.022 344.995 108.63 344.358 109.278C343.722 109.925 342.876 110.477 341.819 110.931C340.762 111.386 339.472 111.613 337.949 111.613ZM338.563 107.999C340.154 107.999 341.495 107.687 342.586 107.062C343.688 106.437 344.518 105.63 345.074 104.641C345.643 103.653 345.927 102.613 345.927 101.522V97.8402C345.756 98.0447 345.381 98.2322 344.802 98.4027C344.233 98.5618 343.574 98.7038 342.824 98.8288C342.086 98.9425 341.364 99.0447 340.66 99.1357C339.966 99.2152 339.404 99.2834 338.972 99.3402C337.927 99.4766 336.949 99.6982 336.04 100.005C335.143 100.3 334.415 100.749 333.858 101.352C333.313 101.942 333.04 102.749 333.04 103.772C333.04 105.17 333.557 106.227 334.591 106.942C335.637 107.647 336.961 107.999 338.563 107.999Z" fill="#0C072C"/>
<path d="M303.789 110.999V76.0898H308.016V107.249H324.244V110.999H303.789Z" fill="#0C072C"/>
<path d="M271.741 111.545C269.377 111.545 267.303 110.982 265.519 109.857C263.746 108.732 262.36 107.158 261.36 105.136C260.371 103.113 259.877 100.749 259.877 98.0447C259.877 95.3175 260.371 92.9368 261.36 90.9027C262.36 88.8686 263.746 87.2891 265.519 86.1641C267.303 85.0391 269.377 84.4766 271.741 84.4766C274.104 84.4766 276.172 85.0391 277.945 86.1641C279.729 87.2891 281.116 88.8686 282.104 90.9027C283.104 92.9368 283.604 95.3175 283.604 98.0447C283.604 100.749 283.104 103.113 282.104 105.136C281.116 107.158 279.729 108.732 277.945 109.857C276.172 110.982 274.104 111.545 271.741 111.545ZM271.741 107.931C273.536 107.931 275.013 107.471 276.172 106.55C277.332 105.63 278.189 104.42 278.746 102.92C279.303 101.42 279.581 99.7947 279.581 98.0447C279.581 96.2947 279.303 94.6641 278.746 93.1527C278.189 91.6413 277.332 90.4197 276.172 89.4879C275.013 88.5561 273.536 88.0902 271.741 88.0902C269.945 88.0902 268.468 88.5561 267.309 89.4879C266.15 90.4197 265.292 91.6413 264.735 93.1527C264.178 94.6641 263.9 96.2947 263.9 98.0447C263.9 99.7947 264.178 101.42 264.735 102.92C265.292 104.42 266.15 105.63 267.309 106.55C268.468 107.471 269.945 107.931 271.741 107.931Z" fill="#0C072C"/>
<path d="M236.767 95.2489V110.999H232.744V76.0898H236.767V88.908H237.108C237.721 87.5558 238.642 86.4819 239.869 85.6864C241.108 84.8796 242.756 84.4762 244.812 84.4762C246.596 84.4762 248.159 84.8342 249.5 85.5501C250.841 86.2546 251.881 87.3398 252.619 88.8058C253.369 90.2603 253.744 92.1126 253.744 94.3626V110.999H249.721V94.6353C249.721 92.5558 249.182 90.9478 248.102 89.8114C247.034 88.6637 245.551 88.0898 243.653 88.0898C242.335 88.0898 241.153 88.3683 240.108 88.9251C239.074 89.4819 238.256 90.2944 237.653 91.3626C237.062 92.4308 236.767 93.7262 236.767 95.2489Z" fill="#0C072C"/>
<path d="M226.131 84.8176V88.2267H212.562V84.8176H226.131ZM216.517 78.5449H220.54V103.499C220.54 104.636 220.705 105.488 221.034 106.056C221.375 106.613 221.807 106.988 222.33 107.181C222.864 107.363 223.426 107.454 224.017 107.454C224.46 107.454 224.824 107.431 225.108 107.386C225.392 107.329 225.619 107.284 225.79 107.249L226.608 110.863C226.335 110.965 225.955 111.068 225.466 111.17C224.977 111.284 224.358 111.34 223.608 111.34C222.472 111.34 221.358 111.096 220.267 110.607C219.187 110.119 218.29 109.374 217.574 108.374C216.869 107.374 216.517 106.113 216.517 104.59V78.5449Z" fill="#0C072C"/>
<path d="M195.244 110.999V84.8173H199.131V88.7718H199.403C199.881 87.4764 200.744 86.4253 201.994 85.6184C203.244 84.8116 204.653 84.4082 206.221 84.4082C206.517 84.4082 206.886 84.4139 207.329 84.4253C207.773 84.4366 208.108 84.4537 208.335 84.4764V88.5673C208.199 88.5332 207.886 88.4821 207.398 88.4139C206.92 88.3343 206.415 88.2946 205.881 88.2946C204.608 88.2946 203.471 88.5616 202.471 89.0957C201.483 89.6184 200.699 90.3457 200.119 91.2775C199.551 92.198 199.267 93.2491 199.267 94.4309V110.999H195.244Z" fill="#0C072C"/>
<path d="M188.681 93.5451C188.681 97.2269 188.017 100.409 186.687 103.091C185.358 105.772 183.534 107.841 181.216 109.295C178.897 110.75 176.25 111.477 173.272 111.477C170.295 111.477 167.647 110.75 165.329 109.295C163.011 107.841 161.187 105.772 159.858 103.091C158.528 100.409 157.863 97.2269 157.863 93.5451C157.863 89.8633 158.528 86.6815 159.858 83.9996C161.187 81.3178 163.011 79.2496 165.329 77.7951C167.647 76.3406 170.295 75.6133 173.272 75.6133C176.25 75.6133 178.897 76.3406 181.216 77.7951C183.534 79.2496 185.358 81.3178 186.687 83.9996C188.017 86.6815 188.681 89.8633 188.681 93.5451ZM184.591 93.5451C184.591 90.5224 184.085 87.9712 183.074 85.8917C182.074 83.8121 180.716 82.2383 179 81.1701C177.295 80.1019 175.386 79.5678 173.272 79.5678C171.159 79.5678 169.244 80.1019 167.528 81.1701C165.824 82.2383 164.466 83.8121 163.454 85.8917C162.454 87.9712 161.954 90.5224 161.954 93.5451C161.954 96.5678 162.454 99.119 163.454 101.199C164.466 103.278 165.824 104.852 167.528 105.92C169.244 106.988 171.159 107.522 173.272 107.522C175.386 107.522 177.295 106.988 179 105.92C180.716 104.852 182.074 103.278 183.074 101.199C184.085 99.119 184.591 96.5678 184.591 93.5451Z" fill="#0C072C"/>
<path fill-rule="evenodd" clip-rule="evenodd" d="M68.1088 9.95706e-07C67.2598 7.10897 60.572 11.0337 56.9338 11.8417C64.2271 12.9605 67.6729 19.8176 68.4842 23.1063C69.6291 15.557 76.2758 12.2089 79.456 11.4786C70.0752 8.74305 68.5818 2.01385 68.2164 0.36779L68.2164 0.367672C68.1639 0.131123 68.1347 -0.000417538 68.1088 9.95706e-07ZM81.8488 21.6307L77.5927 19.8434L91.9962 3.85278L97.1145 6.00206L95.6718 27.4353L91.4157 25.6481L91.8306 20.7967L85.0479 17.9486L81.8488 21.6307ZM92.8193 9.23464L92.1308 17.2855L87.3634 15.2836L92.6725 9.17301L92.8193 9.23464ZM114.485 83.0519L116.279 78.812L132.331 93.1607L130.173 98.2595L108.658 96.8223L110.452 92.5824L115.322 92.9957L118.181 86.2389L114.485 83.0519ZM126.928 93.9806L118.847 93.2948L120.856 88.5455L126.99 93.8344L126.928 93.9806ZM110.781 39.5448C112.491 39.0804 114.15 38.084 115.759 36.5558C117.368 35.0275 118.446 33.4236 118.993 31.7439C119.545 30.069 119.617 28.4294 119.21 26.8253C118.811 25.2214 117.992 23.7711 116.751 22.4745C115.501 21.1683 114.081 20.2789 112.492 19.8063C110.907 19.3292 109.262 19.3252 107.557 19.7944C105.851 20.2636 104.194 21.2623 102.585 22.7906C100.98 24.3142 99.9026 25.9135 99.3509 27.5885C98.7992 29.2634 98.7225 30.9028 99.1206 32.5067C99.5188 34.1106 100.343 35.5657 101.593 36.8719C102.834 38.1685 104.247 39.0554 105.831 39.5325C107.425 40.0099 109.075 40.014 110.781 39.5448ZM114.934 30.4342C114.516 31.4249 113.786 32.4152 112.744 33.4051C111.702 34.3951 110.674 35.0744 109.661 35.4431C108.652 35.8167 107.695 35.8991 106.789 35.6906C105.884 35.4821 105.071 35.0022 104.352 34.2511C103.633 33.4999 103.191 32.6688 103.025 31.7577C102.859 30.8466 102.985 29.8957 103.403 28.905C103.826 27.9191 104.558 26.9311 105.6 25.9412C106.642 24.9513 107.668 24.2695 108.676 23.896C109.69 23.5273 110.649 23.4472 111.555 23.6557C112.46 23.8643 113.273 24.3441 113.992 25.0953C114.711 25.8465 115.153 26.6776 115.319 27.5887C115.485 28.4997 115.357 29.4482 114.934 30.4342ZM99.5027 116.832C97.9686 115.229 96.9685 113.576 96.5023 111.872C96.0313 110.173 96.0354 108.529 96.5146 106.941C96.9936 105.363 97.8838 103.956 99.1854 102.719C100.497 101.474 101.957 100.653 103.567 100.256C105.177 99.8596 106.823 99.936 108.504 100.486C110.186 101.035 111.791 102.109 113.32 103.707C114.855 105.31 115.857 106.961 116.328 108.66C116.799 110.359 116.795 111.998 116.316 113.576C115.842 115.16 114.949 116.574 113.638 117.819C112.336 119.056 110.88 119.872 109.27 120.269C107.66 120.675 106.014 120.603 104.333 120.053C102.647 119.508 101.037 118.435 99.5027 116.832ZM102.665 113.828C103.659 114.866 104.653 115.593 105.648 116.01C106.637 116.431 107.59 116.558 108.504 116.393C109.419 116.228 110.253 115.787 111.007 115.071C111.761 114.354 112.243 113.545 112.452 112.643C112.661 111.741 112.581 110.785 112.211 109.776C111.836 108.771 111.152 107.749 110.158 106.711C109.164 105.673 108.172 104.943 107.183 104.522C106.188 104.106 105.234 103.98 104.319 104.146C103.405 104.311 102.57 104.752 101.816 105.468C101.062 106.184 100.58 106.993 100.371 107.896C100.162 108.798 100.245 109.751 100.62 110.756C100.99 111.766 101.672 112.789 102.665 113.828ZM128.974 38.0581L109.983 45.4396L114.726 57.5507L118.036 56.2639L114.86 48.1529L130.541 42.0581L128.974 38.0581ZM90.585 111.077L97.9947 129.996L93.9793 131.557L87.8613 115.936L79.7193 119.1L78.4276 115.802L90.585 111.077ZM58.8699 115.642L54.6138 113.855L51.4147 117.537L44.632 114.689L45.0469 109.838L40.7908 108.051L39.3481 129.484L44.4664 131.633L58.8699 115.642ZM44.3318 118.2L43.6434 126.251L43.7901 126.313L49.0992 120.202L44.3318 118.2ZM21.9814 52.4349L20.1873 56.6748L4.1356 42.3261L6.2931 37.2273L27.8082 38.6645L26.0141 42.9044L21.1443 42.4911L18.2852 49.2479L21.9814 52.4349ZM9.53802 41.5062L17.6196 42.192L15.61 46.9413L9.47616 41.6524L9.53802 41.5062ZM25.6838 95.9411C23.9736 96.4055 22.314 97.4019 20.705 98.9301C19.0961 100.458 18.018 102.062 17.471 103.742C16.9193 105.417 16.8472 107.056 17.2548 108.661C17.6529 110.265 18.4725 111.715 19.7135 113.011C20.9637 114.318 22.3834 115.207 23.9727 115.68C25.5571 116.157 27.2022 116.161 28.9079 115.691C30.6135 115.222 32.2708 114.224 33.8798 112.695C35.4839 111.172 36.5618 109.572 37.1135 107.897C37.6652 106.223 37.7419 104.583 37.3438 102.979C36.9456 101.375 36.1214 99.9202 34.8713 98.614C33.6303 97.3174 32.2176 96.4305 30.6331 95.9534C29.0392 95.476 27.3895 95.4719 25.6838 95.9411ZM21.5302 105.052C21.9482 104.061 22.6783 103.071 23.7205 102.081C24.7627 101.091 25.7905 100.411 26.8038 100.043C27.8125 99.6692 28.7696 99.5867 29.6752 99.7953C30.5808 100.004 31.3931 100.484 32.1121 101.235C32.831 101.986 33.2735 102.817 33.4394 103.728C33.6054 104.639 33.4794 105.59 33.0614 106.581C32.6389 107.567 31.9065 108.555 30.8643 109.545C29.8221 110.535 28.7966 111.216 27.7879 111.59C26.7746 111.959 25.8152 112.039 24.9096 111.83C24.004 111.622 23.1917 111.142 22.4728 110.391C21.7538 109.639 21.3113 108.808 21.1454 107.897C20.9794 106.986 21.1077 106.038 21.5302 105.052ZM36.9617 18.6542C38.4958 20.2571 39.4959 21.9103 39.9621 23.6141C40.4331 25.3133 40.429 26.9567 39.9498 28.5445C39.4708 30.123 38.5806 31.5303 37.279 32.7666C35.9678 34.012 34.5072 34.833 32.8972 35.2297C31.2871 35.6263 29.6414 35.5499 27.9601 35.0003C26.2788 34.4507 24.6734 33.3769 23.1439 31.7789C21.6098 30.176 20.6073 28.525 20.1363 26.8258C19.6653 25.1267 19.6693 23.4879 20.1483 21.9094C20.6227 20.3262 21.5154 18.9119 22.8266 17.6665C24.1282 16.4302 25.584 15.6137 27.1941 15.2171C28.8043 14.8111 30.4501 14.8829 32.1314 15.4325C33.8175 15.9775 35.4276 17.0514 36.9617 18.6542ZM33.799 21.6582C32.8053 20.62 31.8112 19.8927 30.8167 19.4763C29.827 19.0554 28.8749 18.9276 27.9603 19.0929C27.0458 19.2582 26.2115 19.699 25.4574 20.4152C24.7034 21.1314 24.2217 21.9406 24.0124 22.8428C23.8031 23.7449 23.8835 24.7007 24.2536 25.7102C24.6285 26.715 25.3129 27.7366 26.3066 28.7748C27.3003 29.8131 28.292 30.5427 29.2817 30.9636C30.2762 31.38 31.2308 31.5055 32.1453 31.3402C33.0598 31.1749 33.8941 30.7341 34.6482 30.0179C35.4022 29.3016 35.8839 28.4924 36.0932 27.5903C36.3026 26.6881 36.2197 25.7346 35.8448 24.7298C35.4747 23.7203 34.7927 22.6965 33.799 21.6582ZM7.48999 97.4287L26.4818 90.0472L21.7386 77.9361L18.428 79.2228L21.6046 87.3338L5.92339 93.4286L7.48999 97.4287ZM45.8794 24.4099L38.4697 5.49034L42.4851 3.9297L48.6031 19.5513L56.7451 16.3867L58.0367 19.6847L45.8794 24.4099ZM123.692 78.6361C122.881 75.0117 118.942 68.3493 111.805 67.5036C111.805 67.4777 111.937 67.4486 112.175 67.3963C113.827 67.0324 120.582 65.5446 123.328 56.1995C124.061 59.3676 127.422 65.989 135 67.1296C131.699 67.9377 124.816 71.3705 123.692 78.6361ZM9.99689e-07 67.0718C7.13611 67.9175 11.0759 74.5799 11.8869 78.2042C13.01 70.9387 19.8933 67.5059 23.1945 66.6978C15.6164 65.5572 12.2556 58.9358 11.5224 55.7677C8.77644 65.1128 2.02155 66.6006 0.369194 66.9645C0.131667 67.0168 -0.00041924 67.0459 9.99689e-07 67.0718ZM57.2609 124.735C60.8991 123.927 67.5869 120.003 68.4359 112.894C68.4618 112.893 68.491 113.025 68.5435 113.261L68.5435 113.262C68.9089 114.908 70.4023 121.637 79.7831 124.372C76.6029 125.103 69.9563 128.451 68.8113 136C68 132.711 64.5542 125.854 57.2609 124.735ZM59.0843 61.1773C60.8759 56.7882 63.8021 52.345 68.3865 49.2238C72.5198 52.197 75.5352 56.6119 77.4792 61.0009C78.6505 63.6452 79.39 66.18 79.7672 68.2765C79.2779 67.3936 78.6673 66.4786 77.9052 65.6162C75.8273 63.265 72.6663 61.3619 68.0269 61.4601C61.9057 61.5896 58.81 65.0898 57.0978 68.0305C57.4688 65.9625 58.098 63.5936 59.0843 61.1773ZM54.8501 72.2803C54.8502 72.28 54.8546 72.2759 54.8634 72.2692C54.8545 72.2773 54.8501 72.2806 54.8501 72.2803ZM87.9213 49.4555C85.7579 47.1785 79.6398 43.7076 71.6884 47.3487C75.8128 50.7245 78.7617 55.254 80.6794 59.5835C82.8913 64.5772 83.8658 69.6176 83.4944 72.6645C83.4746 73.249 83.3186 73.825 83.0237 74.3214C82.7169 74.8376 82.1767 75.3899 81.3735 75.5816C80.4931 75.7917 79.6739 75.48 79.0949 74.9427C78.5614 74.4476 78.2216 73.7699 77.9987 73.0609C77.5875 71.7525 76.8105 69.6628 75.2826 67.934C73.81 66.2677 71.6018 64.8852 68.1009 64.9593C62.3684 65.0806 60.5788 68.8078 59.1644 71.7538C58.8785 72.3493 58.6079 72.9128 58.3232 73.4082C57.9998 73.971 57.6358 74.4794 57.2171 74.8596C56.8418 75.2004 56.1227 75.7031 55.1777 75.5611C54.1455 75.4061 53.6328 74.6192 53.4259 74.1198C53.2122 73.6042 53.1508 73.0387 53.1508 72.5362C53.1508 69.5608 53.8332 64.7807 55.8439 59.8546C57.6494 55.4314 60.5623 50.8046 65.1032 47.2854C63.3148 46.4575 61.076 45.7411 58.7087 45.5497C55.2016 45.2663 51.4821 46.129 48.3866 49.4481C44.5243 53.5896 43.845 59.6175 45.0204 66.3588C46.1895 73.0634 49.1328 80.0747 51.9611 85.699C53.0591 87.8826 54.0201 89.2299 54.8089 90.0256C55.5923 90.8159 56.111 90.9706 56.3565 90.9952C56.5854 91.0181 56.8376 90.9546 57.1615 90.7154C57.4886 90.4737 57.8041 90.1102 58.0836 89.7026L62.8696 81.035C63.6589 79.3932 65.1725 77.459 67.3468 76.9646C69.8763 76.3895 72.1568 77.9299 73.9087 80.9594C76.9899 86.2874 78.4931 88.9473 78.9118 89.7057C79.3878 90.3962 80.0165 90.7257 80.579 90.6288C81.25 90.5131 82.7846 89.6824 84.6704 85.7314C87.0891 80.6638 90.1176 73.8228 91.3929 67.0464C92.673 60.2448 92.1143 53.9315 87.9213 49.4555ZM58.9907 42.0611C62.7207 42.3626 66.1194 43.7259 68.4369 45.0793C78.7878 39.274 87.2866 43.7015 90.4637 47.05L90.4708 47.0576C95.8003 52.7423 96.1935 60.4623 94.8325 67.6937C93.4665 74.9522 90.2599 82.1461 87.829 87.239C85.8352 91.4164 83.6171 93.6568 81.1734 94.0779C78.6352 94.5153 76.8046 92.8662 75.9566 91.5832L75.9169 91.5231L75.8823 91.46C75.5466 90.8481 74.0664 88.2236 70.8789 82.7116C69.444 80.2303 68.4336 80.3068 68.1227 80.3775C67.4795 80.5238 66.6119 81.3091 66.0084 82.5841L65.985 82.6335L61.0726 91.5302L61.0306 91.5929C60.627 92.1948 60.0348 92.9443 59.241 93.5306C58.4283 94.1309 57.3295 94.6099 56.0083 94.4778C54.7037 94.3474 53.4732 93.6497 52.3232 92.4896C51.1787 91.3351 50.0223 89.6342 48.8341 87.2714C45.9468 81.5297 42.8282 74.1614 41.5725 66.96C40.3231 59.7953 40.8562 52.3909 45.827 47.061C49.7981 42.8029 54.6519 41.7104 58.9907 42.0611Z" fill="#6855F7"/>
</svg>
